<?xml version="1.0" encoding="UTF-8"?>
<svg width="113px" height="37px" viewBox="0 0 113 37" version="1.1" xmlns="http://www.w3.org/2000/svg" xmlns:xlink="http://www.w3.org/1999/xlink">
    <!-- Generator: Sketch 58 (84663) - https://sketch.com -->
    <title>logo@2x</title>
    <desc>Created with Sketch.</desc>
    <g id="logo" stroke="none" stroke-width="1" fill="none" fill-rule="evenodd">
        <path d="M56.5,0 C26.6705411,0 2.48898678,15.8752366 2.48898678,35.4583333 C2.48898678,35.9751656 2.50582983,36.4894152 2.53917523,37.0008586 L0,37 L0,37 C0,16.5654643 25.2959116,0 56.5,0 Z M56.5,0 C87.7040884,0 113,16.5654643 113,37 L110.460825,37.0008586 C110.49417,36.4894152 110.511013,35.9751656 110.511013,35.4583333 C110.511013,16.0710675 86.8106719,0.317875518 57.3931709,0.0047504036 L56.5,0 L56.5,0 Z" id="Combined-Shape" fill="#D6FF31"></path>
        <path d="M56.5,0 C46.732832,0 38.814978,15.8752366 38.814978,35.4583333 C38.814978,35.9751656 38.820493,36.4894152 38.8314114,37.0008586 L38,37 L38,37 C38,16.5654643 46.2827321,0 56.5,0 Z M56.5,0 C66.7172679,0 75,16.5654643 75,37 L74.1685886,37.0008586 C74.179507,36.4894152 74.185022,35.9751656 74.185022,35.4583333 C74.185022,16.0710675 66.4247333,0.317875518 56.7924542,0.0047504036 L56.5,0 L56.5,0 Z" id="Combined-Shape" fill="#D6FF31"></path>
    </g>
</svg>