<svg version="1.1" x="0px" y="0px" viewBox="0.119 -0.065 308 85" enable-background="new 0.119 -0.065 308 85">
  <g>
    <g>
      <path fill="#0079C0"
            d="M64.244,29.935c-2.505,0-4.41,0.838-5.711,2.511c-1.302,1.674-1.953,4.126-1.953,7.355 c0,3.154,0.651,5.551,1.953,7.195c1.301,1.645,3.206,2.467,5.711,2.467c2.507-0.001,4.416-0.822,5.727-2.467 s1.968-4.041,1.968-7.195c0-3.229-0.657-5.682-1.968-7.355C68.659,30.773,66.751,29.935,64.244,29.935z"></path>
      <path fill="#0079C0"
            d="M144.087,29.787c-2.173,0-3.828,0.832-4.962,2.496c-0.705,1.058-1.214,2.438-1.527,4.141h13.037 c-0.196-1.918-0.705-3.416-1.527-4.492C148.032,30.502,146.358,29.787,144.087,29.787z"></path>
      <path fill="#0079C0"
            d="M165.541,47.139V15.73c0-5.467-4.475-9.938-9.938-9.938H15.811c-5.466,0-9.938,4.472-9.938,9.938v37.708 c0,5.469,4.472,9.938,9.938,9.938h138.336l21.509,8.194L165.541,47.139z M31.52,55.688h-4.287L12.609,12.521h4.789h4.791 l9.486,32.939l9.456-32.939h4.636h4.665L35.807,55.688H31.52z M76.197,52.018c-2.936,2.996-6.92,4.493-11.952,4.493 c-4.992,0-8.961-1.497-11.907-4.493c-2.947-2.996-4.42-7.039-4.42-12.128c0-5.207,1.474-9.342,4.42-12.406 c2.946-3.063,6.915-4.596,11.907-4.596c5.031,0,9.016,1.532,11.952,4.596c2.937,3.064,4.405,7.199,4.405,12.406 C80.602,44.979,79.134,49.021,76.197,52.018z M93.149,55.688H88.95h-4.228V23.739h4.199h4.228V55.688z M93.209,20.009h-8.575 v-7.811h8.575V20.009z M107.474,47.127c1.105,1.656,2.716,2.48,4.831,2.48c1.527,0,2.819-0.527,3.875-1.584 c1.057-1.06,1.675-2.447,1.85-4.17h8.576c-0.43,3.977-1.908,7.078-4.434,9.311c-2.525,2.23-5.814,3.35-9.866,3.35 c-4.835,0-8.57-1.438-11.203-4.318c-2.633-2.877-3.95-6.979-3.95-12.304c0-5.207,1.366-9.342,4.096-12.406 c2.731-3.063,6.417-4.596,11.057-4.596c4.111,0,7.478,1.137,10.101,3.406c2.624,2.271,4.023,5.256,4.199,8.957h-8.575 c-0.078-1.586-0.641-2.867-1.688-3.847c-1.048-0.979-2.393-1.469-4.038-1.469c-2.115,0-3.725,0.848-4.831,2.539 c-1.106,1.694-1.66,4.165-1.66,7.415C105.814,43.063,106.367,45.475,107.474,47.127z M159.27,41.798h-21.761 c0.195,2.526,0.754,4.415,1.674,5.667c1.175,1.568,3.132,2.352,5.873,2.352c1.272,0,2.452-0.362,3.538-1.086 c1.087-0.727,1.737-1.598,1.953-2.614h8.573c-0.724,3.252-2.402,5.797-5.035,7.635s-5.927,2.76-9.88,2.76 c-4.856,0-8.6-1.497-11.232-4.493c-2.634-2.996-3.95-7.263-3.95-12.804c0-5.109,1.341-9.107,4.023-11.994 c2.682-2.89,6.402-4.333,11.159-4.333c4.875,0,8.628,1.473,11.262,4.419c2.633,2.947,3.949,7.143,3.949,12.583 C159.455,40.517,159.406,41.154,159.27,41.798z"></path>
    </g>
    <g>
      <g>
        <path fill="#8ED753"
              d="M172.907,12.521h4.315h16.592c4.17,0,7.429,0.964,9.776,2.893c2.351,1.928,3.524,4.605,3.524,8.03 c0,3.583-1.322,6.305-3.967,8.164c-0.43,0.313-0.908,0.597-1.438,0.853c1.018,0.391,1.918,0.86,2.7,1.408 c2.762,1.899,4.142,4.669,4.142,8.312c0,4.402-1.367,7.758-4.097,10.055c-2.729,2.305-6.722,3.451-11.966,3.451h-15.271h-4.314 L172.907,12.521L172.907,12.521z M181.542,29.436h10.306c2.25,0,3.935-0.421,5.051-1.264c1.115-0.84,1.675-2.113,1.675-3.816 c0-1.469-0.587-2.57-1.765-3.304c-1.174-0.735-2.942-1.102-5.313-1.102h-9.952L181.542,29.436L181.542,29.436z M181.542,48.201 h10.951c2.35,0,4.11-0.51,5.284-1.527c1.176-1.018,1.764-2.557,1.764-4.61c0-1.802-0.604-3.146-1.807-4.038 c-1.205-0.892-3.01-1.336-5.416-1.336h-10.776V48.201z"></path>
      </g>
      <g>
        <path fill="#8ED753"
              d="M221.402,56.511c-2.957,0-5.336-0.848-7.137-2.541c-1.804-1.694-2.703-3.92-2.703-6.68 c0-2.918,0.813-5.252,2.438-7.005c1.625-1.752,3.994-2.853,7.105-3.304l5.552-0.763c1.448-0.194,2.651-0.528,3.61-0.999 c0.412-0.194,0.729-0.548,0.953-1.057c0.229-0.509,0.31-1.028,0.25-1.557c-0.117-0.9-0.578-1.604-1.38-2.113 c-0.958-0.607-2.34-0.911-4.142-0.911c-1.605,0-2.856,0.393-3.758,1.174c-0.901,0.784-1.381,1.89-1.439,3.319h-8.076 c0.178-3.739,1.449-6.539,3.818-8.397c2.367-1.86,5.844-2.791,10.424-2.791c3.975,0,7.111,0.839,9.412,2.513 c2.301,1.677,3.452,3.964,3.452,6.864v17.869c0,1.433,0.116,2.437,0.35,3.015c0.236,0.578,0.707,1.033,1.411,1.367v0.028v1.146 h-4.551h-4.553v-0.029c-0.373-1.291-0.616-2.557-0.734-3.787l-0.027-0.059C229.038,54.943,225.611,56.511,221.402,56.511z M231.531,43.882v-3.67c-0.979,0.55-2.271,0.989-3.875,1.321l-3.112,0.589c-1.468,0.273-2.584,0.777-3.349,1.512 c-0.764,0.732-1.146,1.658-1.146,2.775c0,1.272,0.344,2.271,1.028,2.993c0.685,0.724,1.646,1.087,2.878,1.087 c2.701,0,4.854-0.949,6.459-2.851c0.313-0.369,0.577-0.918,0.794-1.645C231.424,45.273,231.531,44.566,231.531,43.882z"></path>
      </g>
      <g>
        <path fill="#8ED753"
              d="M263.346,33.311c0-1.232-0.513-2.221-1.531-2.966c-1.018-0.742-2.369-1.115-4.053-1.115 c-1.627,0-2.896,0.28-3.809,0.837c-0.909,0.558-1.364,1.337-1.364,2.335c0,0.704,0.519,1.312,1.558,1.82 c1.018,0.489,2.828,1.028,5.433,1.614c5.172,1.157,8.627,2.419,10.37,3.79c1.746,1.37,2.619,3.524,2.619,6.459 c0,3.133-1.269,5.654-3.803,7.563c-2.535,1.906-5.881,2.862-10.029,2.862c-4.914,0-8.698-0.94-11.353-2.819 c-2.653-1.879-4.069-4.621-4.243-8.224h8.574c0.059,1.47,0.71,2.619,1.952,3.449c1.243,0.834,2.935,1.248,5.065,1.248 c1.687,0,3.002-0.287,3.953-0.865c0.947-0.577,1.424-1.385,1.424-2.422c0-0.726-0.461-1.342-1.379-1.853 c-0.922-0.487-2.537-0.985-4.849-1.496c-5.403-1.214-9.017-2.495-10.838-3.846c-1.815-1.331-2.728-3.398-2.728-6.196 c0-3.172,1.18-5.732,3.537-7.68c2.358-1.947,5.463-2.922,9.321-2.922c4.347,0,7.849,0.954,10.511,2.863s3.992,4.429,3.992,7.561 L263.346,33.311L263.346,33.311z"></path>
      </g>
      <g>
        <path fill="#8ED753"
              d="M289.438,56.511c-4.854,0-8.599-1.497-11.229-4.493c-2.636-2.996-3.951-7.263-3.951-12.804 c0-5.109,1.343-9.107,4.022-11.994c2.683-2.89,6.402-4.333,11.158-4.333c4.877,0,8.627,1.473,11.264,4.419 c2.634,2.947,3.947,7.143,3.947,12.583c0.039,0.628-0.01,1.265-0.146,1.909h-21.761c0.195,2.526,0.754,4.415,1.673,5.667 c1.177,1.568,3.133,2.352,5.875,2.352c1.271,0,2.451-0.362,3.537-1.086c1.088-0.727,1.737-1.598,1.955-2.614h8.571 c-0.725,3.252-2.401,5.797-5.035,7.635C296.688,55.589,293.393,56.511,289.438,56.511z M295.87,36.424 c-0.198-1.918-0.706-3.416-1.527-4.492c-1.077-1.43-2.752-2.145-5.021-2.145c-2.172,0-3.828,0.832-4.963,2.496 c-0.705,1.058-1.215,2.438-1.527,4.141H295.87z"></path>
      </g>
    </g>
    <g>
      <polygon fill="#8ED753" points="188.254,62.406 176.623,81.677 200.516,81.677"></polygon>
    </g>
  </g>
</svg>
