<?xml version="1.0" encoding="UTF-8"?>
<svg width="332px" height="340px" viewBox="0 0 332 340" version="1.1" xmlns="http://www.w3.org/2000/svg" xmlns:xlink="http://www.w3.org/1999/xlink">
    <!-- Generator: Sketch 58 (84663) - https://sketch.com -->
    <title>pinny@0.5x</title>
    <desc>Created with Sketch.</desc>
    <defs>
        <path d="M220.203125,49.28125 C199.492188,20.5625 190.425781,10.2265625 157.082031,3.71875 C123.738281,-2.7890625 95.6132813,-1.59847334 65.1679688,24.2222477 C34.7226563,50.0429688 3.4609375,105.671875 0.76171875,122.304688 C-1.9375,138.9375 5.3515625,222.246094 26.5507813,246.105469 C40.6835938,262.011719 76.1666667,286.66428 133,320.063152 L174.5625,364.496094 C203.299479,387.032552 226.25651,393.321615 243.433594,383.363281 C269.199219,368.425781 291.066886,363.627113 290.090084,331.594807 C289.113281,299.5625 277.900572,281.570312 303.024505,268.554688 C328.148438,255.539063 372.042969,242.222656 368.585938,186.808594 C365.128906,131.394531 361.476563,67.046875 320.882813,41.3632812 C280.289063,15.6796875 261.265625,18.0655892 243.433594,24.2222477 C225.601563,30.3789062 240.914063,78 220.203125,49.28125 Z" id="path-1"></path>
        <radialGradient cx="19.9282948%" cy="9.97400797%" fx="19.9282948%" fy="9.97400797%" r="113.950046%" gradientTransform="translate(0.199283,0.099740),scale(1.000000,0.824860),rotate(66.497313),translate(-0.199283,-0.099740)" id="radialGradient-3">
            <stop stop-color="#FFE3D5" offset="0%"></stop>
            <stop stop-color="#F8E3A5" offset="30.4969057%"></stop>
            <stop stop-color="#F7782C" offset="69.5572045%"></stop>
            <stop stop-color="#976512" offset="100%"></stop>
        </radialGradient>
        <filter x="-6.9%" y="-5.7%" width="113.9%" height="111.4%" filterUnits="objectBoundingBox" id="filter-4">
            <feGaussianBlur stdDeviation="8" in="SourceGraphic"></feGaussianBlur>
        </filter>
    </defs>
    <g id="pinny" stroke="none" stroke-width="1" fill="none" fill-rule="evenodd">
        <g id="Path" transform="translate(5.000000, -208.000000)">
            <mask id="mask-2" fill="white">
                <use xlink:href="#path-1"></use>
            </mask>
            <g id="Mask"></g>
            <path d="M269.503906,89.0820312 C256.081129,75.6463009 242.672275,68.3233842 229.277344,67.1132813 L200.444126,5.68832024 L119.996094,-20 L63.912812,5.68832024 L-3.81120204,41.2177605 L-34,109.153647 L-34,153.836856 L-9.76171875,227.375 L50.125,309.332031 L132.246952,367.090018 L175.123886,400.950355 L247.318009,408.363281 L300.503906,384.921875 L319.339844,344.65625 C303.834635,308.65625 292.235677,282.928385 284.542969,267.472656 C273.003906,244.289062 314.41511,232.968016 310.304688,184.210937 C306.194265,135.453859 289.638073,109.235627 269.503906,89.0820312 Z" stroke="#979797" fill="url(#radialGradient-3)" filter="url(#filter-4)" mask="url(#mask-2)"></path>
        </g>
        <g id="Group" transform="translate(138.000000, -3.500000) scale(-1, 1) rotate(14.000000) translate(-138.000000, 3.500000) translate(13.000000, -209.000000)" fill="#A84C0F" fill-rule="nonzero">
            <g transform="translate(125.235294, 205.147059) scale(-1, 1) rotate(-180.000000) translate(-125.235294, -205.147059) translate(0.735294, 0.147059)">
                <path d="M89.5588235,408.823529 C53.8235294,403.088235 23.2352941,381.470588 6.17647059,349.852941 C-0.588235294,337.352941 -2.35294118,330.441176 3.97058824,341.470588 C27.0588235,381.470588 56.0294118,400.147059 95,400.147059 C118.823529,400 137.058824,395.294118 159.264706,383.235294 C195.588235,363.382353 223.088235,330.294118 236.617647,289.852941 C247.352941,258.088235 247.5,237.5 237.352941,205.735294 C225,167.352941 207.794118,145 163.823529,110 C135.735294,87.5 129.852941,79.5588235 124.411765,56.7647059 C120.588235,40.8823529 117.5,34.7058824 109.264706,26.9117647 C97.7941176,15.8823529 84.4117647,11.1764706 64.7058824,11.1764706 C49.2647059,11.3235294 29.2647059,15.8823529 21.1764706,21.1764706 C15.5882353,24.8529412 13.5294118,28.9705882 8.97058824,45.5882353 C7.64705882,50.1470588 5.58823529,54.8529412 4.26470588,55.8823529 C1.91176471,57.7941176 1.76470588,56.7647059 2.5,43.6764706 C3.08823529,32.6470588 4.11764706,27.9411765 6.76470588,22.3529412 C15.5882353,4.70588235 45.4411765,-4.11764706 75.8823529,1.91176471 C88.6764706,4.55882353 98.9705882,9.55882353 109.558824,18.6764706 C116.176471,24.2647059 126.764706,38.0882353 143.088235,62.3529412 C155,80.2941176 162.647059,89.8529412 176.323529,104.264706 C195.294118,124.117647 219.117647,152.794118 225.735294,163.823529 C233.382353,176.617647 239.705882,191.617647 245.147059,210.882353 C248.088235,221.323529 248.529412,225.882353 248.529412,250.588235 C248.529412,277.058824 248.235294,279.264706 244.411765,292.5 C239.117647,310 227.941176,333.235294 219.411765,344.852941 C204.117647,365 175,389.117647 154.558824,398.382353 C133.529412,407.941176 108.823529,411.911765 89.5588235,408.823529 Z" id="node1"></path>
                <path d="M89.1176471,360.735294 C54.7058824,351.470588 30.2941176,317.5 33.8235294,283.676471 C35,272.647059 40.5882353,253.823529 45.8823529,243.235294 C50.7352941,233.529412 62.2058824,218.235294 70,210.882353 L76.3235294,205 L71.3235294,210.882353 C60.2941176,223.823529 55.7352941,241.764706 61.7647059,248.382353 C64.4117647,251.323529 65.7352941,251.617647 74.7058824,250.882353 C88.6764706,250 101.617647,243.382353 113.970588,230.882353 C134.558824,210.147059 139.558824,186.176471 127.205882,168.235294 C120.882353,158.970588 113.088235,155.735294 92.9411765,154.117647 C66.4705882,151.911765 58.9705882,147.5 54.2647059,131.176471 C51.1764706,120.735294 47.9411765,117.5 40.4411765,117.5 C33.5294118,117.5 27.9411765,120 22.9411765,125.441176 C15.4411765,133.382353 20.2941176,141.764706 35.1470588,146.029412 C45,148.970588 50.7352941,155 50.7352941,162.5 C50.7352941,168.529412 46.7647059,173.088235 37.5,177.794118 L31.1764706,181.029412 L37.3529412,175.147059 C48.3823529,164.705882 45,155.147059 27.2058824,146.176471 C15.2941176,140.147059 12.5,136.764706 12.5,128.088235 C12.5,116.323529 20.4411765,107.941176 33.2352941,106.323529 C43.9705882,105 48.6764706,108.529412 57.3529412,124.705882 C61.3235294,132.352941 66.4705882,139.852941 68.6764706,141.470588 C71.6176471,143.676471 77.0588235,144.852941 92.5,146.176471 C109.558824,147.794118 113.970588,148.823529 122.5,152.794118 C133.823529,158.088235 139.558824,162.941176 143.529412,170.882353 C153.823529,190.882353 147.647059,219.264706 128.970588,237.941176 C122.352941,244.558824 117.058824,248.235294 105.735294,253.382353 C73.8235294,268.382353 65.7352941,273.676471 58.3823529,284.705882 C53.2352941,292.5 52.9411765,293.676471 52.9411765,304.117647 C52.9411765,312.941176 53.6764706,316.764706 56.4705882,322.647059 C66.7647059,343.382353 91.0294118,355.147059 115.882353,351.323529 C130.735294,349.117647 143.235294,342.647059 155.735294,330.735294 C180,307.647059 195.147059,269.117647 195.294118,230 C195.441176,199.264706 186.470588,177.205882 161.911765,147.794118 C149.558824,132.941176 149.264706,132.5 155.147059,136.617647 C178.676471,152.941176 197.647059,182.647059 203.235294,212.205882 C208.088235,237.794118 203.088235,275 191.470588,300.294118 C181.029412,322.941176 161.470588,342.941176 139.705882,353.529412 C119.705882,363.088235 105.588235,365.147059 89.1176471,360.735294 Z" id="node2"></path>
            </g>
        </g>
        <g id="Group-2" transform="translate(137.000000, 83.000000)" fill="#D8D8D8" stroke="#000000">
            <path d="M122.281072,6.89069881 C128.105534,2.47897037 144.184925,-0.954222835 149.417208,2.26397382 C152.623977,4.23634631 157.774574,9.79651043 158.855755,18.4986172 C161.673138,41.174897 122.348268,110.449564 116.987732,122.575737 C113.414041,130.659853 98.2237216,155.46794 71.4167723,197 L71.4167723,197 L64.4150221,197 C86.6002649,161.704349 101.099049,138.326546 107.911375,126.866592 C118.129864,109.676661 135.312565,73.9147263 144.408063,52.1108934 C153.503561,30.3070605 156.516972,16.2315136 147.094066,7.65909333 C142.938101,3.87823422 135.080612,5.03824066 129.141391,8.84490448 C121.614494,13.6691684 115.153697,19.8134663 108.47617,27.242514 C101.798643,34.6715616 97.0712975,40.3540586 88.6331658,52.6249322 C86.7590806,55.3502584 84.8895559,58.1611 83.0576414,60.9923106 L78.1642117,58.1776855 C79.9115217,55.509922 81.7014274,52.8790691 83.5287821,50.3103583 C90.0882339,41.0897428 96.8808626,31.471281 103.559041,24.5983872 C111.414645,16.5137376 118.139529,10.0277038 122.281072,6.89069881 Z M59.9781816,89.5616186 L64.7806306,92.1943938 C63.625312,94.4597924 62.7105268,96.3830724 62.0908373,97.8566832 C58.3308505,106.797866 46.3196078,132.55812 26.0571092,175.137445 L26.0571092,175.137445 L21,173.134592 C31.9891904,149.879652 39.8779332,132.752546 44.6662285,121.753277 C46.9530251,116.500239 51.0066097,107.395775 56.3812629,96.6249145 C57.5221322,94.3386006 58.7225261,91.9772025 59.9781816,89.5616186 Z" id="Combined-Shape"></path>
            <path d="M138.5,0 C149.821837,0 159,9.17816263 159,20.5 C159,31.8218374 149.821837,41 138.5,41 C127.178163,41 118,31.8218374 118,20.5 C118,9.17816263 127.178163,0 138.5,0 Z M138.5,6.26388889 C130.637613,6.26388889 124.263889,12.6376129 124.263889,20.5 C124.263889,28.3623871 130.637613,34.7361111 138.5,34.7361111 C146.362387,34.7361111 152.736111,28.3623871 152.736111,20.5 C152.736111,12.6376129 146.362387,6.26388889 138.5,6.26388889 Z" id="Combined-Shape"></path>
            <path d="M75,196.463383 C71.976625,195.020571 66.830329,195.020571 59.561112,196.463383 C48.6572864,198.627601 42.1815122,203.67953 37.6450406,212.863623 C34.6207263,218.986352 34.6207263,224.757251 37.6450406,230.176322 C34.1821487,234.477613 31.1263094,234.477613 28.4775227,230.176322 C24.5043427,223.724384 18.683317,221.590443 21.4020821,216.98639 C24.1208472,212.382338 31.0697621,205.157838 30.7199098,196.463383 C30.3700576,187.768928 31.4322051,178.809296 28.4775227,175.228366 C26.5077345,172.84108 23.6216448,171.098291 19.8192536,170 C13.8385247,178.661743 9.75552707,185.996907 7.57026074,192.005491 C4.29236123,201.018367 -3.43367076,210.962494 1.73052792,227.934848 C6.8947266,244.907201 21.1661648,247.166423 33.1085691,246.991031 C45.0509734,246.815638 51.3739729,238.672416 56.2128759,230.176322 C59.4388113,224.512258 65.701186,213.274612 75,196.463383 Z" id="Path-2"></path>
        </g>
        <g id="eeys" transform="translate(161.000000, 219.000000)">
            <circle id="Oval" stroke="#979797" fill="#FFFFFF" cx="15" cy="15.0327975" r="15"></circle>
            <circle id="Oval-Copy" stroke="#979797" fill="#FFFFFF" cx="50" cy="31.0327975" r="15"></circle>
            <path d="M64.5,36.0327975 C62.3517054,35.6024873 60.5099136,29.1299441 53.5805492,25.6430587 C48.960973,23.3184684 43.9341232,22.1150481 38.5,22.0327975" id="Path-6" stroke="#000000"></path>
            <path d="M64,36.0327975 C65.6915218,27.4303441 64.0912649,21.7636774 59.1992291,19.0327975 C51.8611754,14.9364777 47.055046,15.0489778 43.014007,17.5705934 C40.3199809,19.2516704 38.4880073,20.7574983 37.5180862,22.0880771 C36.7147531,22.0977376 37.0420577,22.0793111 38.5,22.0327975 C40.6869135,21.9630272 50.3453375,23.5076591 53.3017144,25.9133586 C55.2726323,27.5171583 58.8387275,30.8903046 64,36.0327975 Z" id="Path-7" stroke="#000000" fill="#D8D8D8"></path>
            <path d="M28.9099979,20.2716753 C30.6015198,11.6692219 29.0012628,6.00255521 24.109227,3.27167533 C16.7711733,-0.824644482 11.965044,-0.712144392 7.92400488,1.80947117 C5.22997882,3.49054822 3.39800524,4.99637612 2.42808414,6.32695487 C1.62475102,6.33661542 1.95205562,6.31818891 3.40999792,6.27167533 C5.59691138,6.20190497 15.2553354,7.74653691 18.2117123,10.1522364 C20.1826302,11.7560361 23.7487254,15.1291824 28.9099979,20.2716753 Z" id="Path-7-Copy" stroke="#000000" fill="#D8D8D8"></path>
            <circle id="Oval" fill="#000000" cx="11.5" cy="14.5327975" r="3.5"></circle>
            <circle id="Oval-Copy-2" fill="#000000" cx="45.5" cy="31.5327975" r="3.5"></circle>
        </g>
        <path d="M220.060911,143.272017 C220.091314,143.403223 219.140108,142.930054 217.207294,141.852508 C215.274479,140.774963 213.260176,139.490794 211.164383,138 C205.920166,138.942206 202.052544,140.034732 199.561516,141.277577 C195.824974,143.141843 196.292229,147.112902 200.208197,147.112128 C204.124164,147.111353 205.475091,148.453377 207.622219,151.760398 C209.769348,155.067418 213.70251,159.432096 217.156456,155.344036 C220.610402,151.255976 226.178582,156.49545 228.396734,153.239569 C230.614885,149.983688 226.018594,149.718692 225.79805,147.758345 C225.651021,146.451447 223.738641,144.956004 220.060911,143.272017 Z" id="Path-5" fill="#FF0000"></path>
        <g id="Group-3" transform="translate(273.000000, 290.000000)">
            <circle id="Oval" fill="#D0021B" cx="18" cy="18" r="18"></circle>
            <path d="M26.6304348,10.3695652 L10.3695652,26.6304348" id="Line" stroke="#FFFFFF" stroke-width="5" stroke-linecap="square"></path>
            <path d="M26.6304348,10.3695652 L10.3695652,26.6304348" id="Line-Copy" stroke="#FFFFFF" stroke-width="5" stroke-linecap="square" transform="translate(18.500000, 18.500000) scale(1, -1) translate(-18.500000, -18.500000) "></path>
        </g>
    </g>
</svg>